<svg xmlns="http://www.w3.org/2000/svg" viewBox="0 0 24 24">
  <path id="a" d="M6.327 14.41a5.677 5.677 0 0 1-1.674-4.041c0-1.527.594-2.963 1.674-4.042a5.678 5.678 0 0 1 4.042-1.674c1.526 0 2.962.594 4.041 1.674a5.678 5.678 0 0 1 1.675 4.042 5.68 5.68 0 0 1-1.675 4.042 5.676 5.676 0 0 1-4.041 1.673 5.677 5.677 0 0 1-4.042-1.674zm14.86 5.477l-4.869-4.87a7.494 7.494 0 0 0 1.607-4.648 7.507 7.507 0 0 0-2.214-5.343 7.505 7.505 0 0 0-5.342-2.213 7.507 7.507 0 0 0-5.343 2.213 7.507 7.507 0 0 0-2.213 5.343c0 2.018.786 3.916 2.213 5.342a7.507 7.507 0 0 0 5.343 2.214 7.495 7.495 0 0 0 4.648-1.606l4.87 4.869 1.3-1.301z"/>
</svg>
